<mxfile host="65bd71144e" modified="2021-01-02T03:09:42.653Z" agent="5.0 (Windows NT 10.0; Win64; x64) AppleWebKit/537.36 (KHTML, like Gecko) Code/1.50.1 Chrome/83.0.4103.122 Electron/9.2.1 Safari/537.36" etag="FLza3ORJAC0-0ZwNGrmy" version="13.10.0" type="embed">
    <diagram id="CBRWdgfNFCohHivJovhn" name="Page-1">
        <mxGraphModel dx="522" dy="270" grid="1" gridSize="10" guides="1" tooltips="1" connect="1" arrows="1" fold="1" page="1" pageScale="1" pageWidth="827" pageHeight="1169" math="0" shadow="0">
            <root>
                <mxCell id="0"/>
                <mxCell id="1" parent="0"/>
                <mxCell id="2" value="app" style="rounded=1;whiteSpace=wrap;html=1;" parent="1" vertex="1">
                    <mxGeometry x="40" y="40" width="80" height="40" as="geometry"/>
                </mxCell>
                <mxCell id="3" value="ip" style="rounded=1;whiteSpace=wrap;html=1;" parent="1" vertex="1">
                    <mxGeometry x="160" y="40" width="80" height="40" as="geometry"/>
                </mxCell>
                <mxCell id="4" value="eth0" style="rounded=1;whiteSpace=wrap;html=1;" parent="1" vertex="1">
                    <mxGeometry x="280" y="40" width="80" height="40" as="geometry"/>
                </mxCell>
                <mxCell id="5" value="tun0" style="rounded=1;whiteSpace=wrap;html=1;" parent="1" vertex="1">
                    <mxGeometry x="400" y="40" width="80" height="40" as="geometry"/>
                </mxCell>
                <mxCell id="6" value="vpn" style="rounded=1;whiteSpace=wrap;html=1;" parent="1" vertex="1">
                    <mxGeometry x="520" y="40" width="80" height="40" as="geometry"/>
                </mxCell>
                <mxCell id="7" value="" style="endArrow=none;html=1;entryX=0.5;entryY=1;entryDx=0;entryDy=0;" parent="1" target="2" edge="1">
                    <mxGeometry width="50" height="50" relative="1" as="geometry">
                        <mxPoint x="80" y="360" as="sourcePoint"/>
                        <mxPoint x="380" y="90" as="targetPoint"/>
                    </mxGeometry>
                </mxCell>
                <mxCell id="8" value="" style="endArrow=classic;html=1;" parent="1" edge="1">
                    <mxGeometry width="50" height="50" relative="1" as="geometry">
                        <mxPoint x="80" y="120" as="sourcePoint"/>
                        <mxPoint x="200" y="120" as="targetPoint"/>
                    </mxGeometry>
                </mxCell>
                <mxCell id="9" value="" style="endArrow=none;html=1;entryX=0.5;entryY=1;entryDx=0;entryDy=0;" parent="1" target="3" edge="1">
                    <mxGeometry width="50" height="50" relative="1" as="geometry">
                        <mxPoint x="200" y="360" as="sourcePoint"/>
                        <mxPoint x="380" y="90" as="targetPoint"/>
                    </mxGeometry>
                </mxCell>
                <mxCell id="10" value="" style="endArrow=none;html=1;entryX=0.5;entryY=1;entryDx=0;entryDy=0;" parent="1" edge="1">
                    <mxGeometry width="50" height="50" relative="1" as="geometry">
                        <mxPoint x="319.5" y="360" as="sourcePoint"/>
                        <mxPoint x="319.5" y="80" as="targetPoint"/>
                    </mxGeometry>
                </mxCell>
                <mxCell id="11" value="" style="endArrow=none;html=1;entryX=0.5;entryY=1;entryDx=0;entryDy=0;" parent="1" edge="1">
                    <mxGeometry width="50" height="50" relative="1" as="geometry">
                        <mxPoint x="439.5" y="360" as="sourcePoint"/>
                        <mxPoint x="439.5" y="80" as="targetPoint"/>
                    </mxGeometry>
                </mxCell>
                <mxCell id="12" value="" style="endArrow=none;html=1;entryX=0.5;entryY=1;entryDx=0;entryDy=0;" parent="1" edge="1">
                    <mxGeometry width="50" height="50" relative="1" as="geometry">
                        <mxPoint x="559.5" y="360" as="sourcePoint"/>
                        <mxPoint x="559.5" y="80" as="targetPoint"/>
                    </mxGeometry>
                </mxCell>
                <mxCell id="13" value="" style="endArrow=classic;html=1;" parent="1" edge="1">
                    <mxGeometry width="50" height="50" relative="1" as="geometry">
                        <mxPoint x="200" y="160" as="sourcePoint"/>
                        <mxPoint x="440" y="160" as="targetPoint"/>
                    </mxGeometry>
                </mxCell>
                <mxCell id="14" value="" style="endArrow=classic;html=1;" parent="1" edge="1">
                    <mxGeometry width="50" height="50" relative="1" as="geometry">
                        <mxPoint x="440" y="200" as="sourcePoint"/>
                        <mxPoint x="560" y="200" as="targetPoint"/>
                    </mxGeometry>
                </mxCell>
                <mxCell id="15" value="" style="endArrow=classic;html=1;" parent="1" edge="1">
                    <mxGeometry width="50" height="50" relative="1" as="geometry">
                        <mxPoint x="560" y="240" as="sourcePoint"/>
                        <mxPoint x="200" y="240" as="targetPoint"/>
                    </mxGeometry>
                </mxCell>
                <mxCell id="18" value="" style="endArrow=classic;html=1;" parent="1" edge="1">
                    <mxGeometry width="50" height="50" relative="1" as="geometry">
                        <mxPoint x="200" y="280" as="sourcePoint"/>
                        <mxPoint x="320" y="280" as="targetPoint"/>
                    </mxGeometry>
                </mxCell>
                <mxCell id="19" value="" style="endArrow=classic;html=1;rounded=0;" parent="1" edge="1">
                    <mxGeometry width="50" height="50" relative="1" as="geometry">
                        <mxPoint x="320" y="320" as="sourcePoint"/>
                        <mxPoint x="320" y="520" as="targetPoint"/>
                        <Array as="points">
                            <mxPoint x="380" y="320"/>
                            <mxPoint x="380" y="520"/>
                        </Array>
                    </mxGeometry>
                </mxCell>
                <mxCell id="21" value="ip" style="rounded=1;whiteSpace=wrap;html=1;" parent="1" vertex="1">
                    <mxGeometry x="160" y="440" width="80" height="40" as="geometry"/>
                </mxCell>
                <mxCell id="22" value="tun1" style="rounded=1;whiteSpace=wrap;html=1;" parent="1" vertex="1">
                    <mxGeometry x="400" y="440" width="80" height="40" as="geometry"/>
                </mxCell>
                <mxCell id="23" value="vpn" style="rounded=1;whiteSpace=wrap;html=1;" parent="1" vertex="1">
                    <mxGeometry x="520" y="440" width="80" height="40" as="geometry"/>
                </mxCell>
                <mxCell id="24" value="" style="endArrow=none;html=1;entryX=0.5;entryY=1;entryDx=0;entryDy=0;" parent="1" edge="1">
                    <mxGeometry width="50" height="50" relative="1" as="geometry">
                        <mxPoint x="319" y="800" as="sourcePoint"/>
                        <mxPoint x="319.29" y="480" as="targetPoint"/>
                    </mxGeometry>
                </mxCell>
                <mxCell id="25" value="" style="endArrow=none;html=1;entryX=0.5;entryY=1;entryDx=0;entryDy=0;" parent="1" edge="1">
                    <mxGeometry width="50" height="50" relative="1" as="geometry">
                        <mxPoint x="439" y="800" as="sourcePoint"/>
                        <mxPoint x="439.40999999999997" y="480" as="targetPoint"/>
                    </mxGeometry>
                </mxCell>
                <mxCell id="26" value="" style="endArrow=none;html=1;entryX=0.5;entryY=1;entryDx=0;entryDy=0;" parent="1" edge="1">
                    <mxGeometry width="50" height="50" relative="1" as="geometry">
                        <mxPoint x="559" y="800" as="sourcePoint"/>
                        <mxPoint x="559.29" y="480" as="targetPoint"/>
                    </mxGeometry>
                </mxCell>
                <mxCell id="27" value="" style="endArrow=none;html=1;entryX=0.5;entryY=1;entryDx=0;entryDy=0;" parent="1" edge="1">
                    <mxGeometry width="50" height="50" relative="1" as="geometry">
                        <mxPoint x="199" y="800" as="sourcePoint"/>
                        <mxPoint x="199.28999999999996" y="480" as="targetPoint"/>
                    </mxGeometry>
                </mxCell>
                <mxCell id="28" value="" style="endArrow=classic;html=1;" parent="1" edge="1">
                    <mxGeometry width="50" height="50" relative="1" as="geometry">
                        <mxPoint x="320" y="560" as="sourcePoint"/>
                        <mxPoint x="200" y="560" as="targetPoint"/>
                    </mxGeometry>
                </mxCell>
                <mxCell id="30" value="" style="endArrow=classic;html=1;" parent="1" edge="1">
                    <mxGeometry width="50" height="50" relative="1" as="geometry">
                        <mxPoint x="200" y="600" as="sourcePoint"/>
                        <mxPoint x="560" y="600" as="targetPoint"/>
                    </mxGeometry>
                </mxCell>
                <mxCell id="31" value="" style="endArrow=classic;html=1;" parent="1" edge="1">
                    <mxGeometry width="50" height="50" relative="1" as="geometry">
                        <mxPoint x="560" y="640" as="sourcePoint"/>
                        <mxPoint x="440" y="640" as="targetPoint"/>
                    </mxGeometry>
                </mxCell>
                <mxCell id="32" value="" style="endArrow=classic;html=1;" parent="1" edge="1">
                    <mxGeometry width="50" height="50" relative="1" as="geometry">
                        <mxPoint x="439.9999999999998" y="680" as="sourcePoint"/>
                        <mxPoint x="200" y="680" as="targetPoint"/>
                    </mxGeometry>
                </mxCell>
                <mxCell id="33" value="" style="endArrow=classic;html=1;" parent="1" edge="1">
                    <mxGeometry width="50" height="50" relative="1" as="geometry">
                        <mxPoint x="200" y="720" as="sourcePoint"/>
                        <mxPoint x="320" y="720" as="targetPoint"/>
                    </mxGeometry>
                </mxCell>
                <mxCell id="35" value="(?,e2_ip)" style="text;html=1;align=center;verticalAlign=middle;resizable=0;points=[];autosize=1;" parent="1" vertex="1">
                    <mxGeometry x="100" y="90" width="60" height="20" as="geometry"/>
                </mxCell>
                <mxCell id="36" value="(t0_ip, e2_ip)" style="text;html=1;align=center;verticalAlign=middle;resizable=0;points=[];autosize=1;" parent="1" vertex="1">
                    <mxGeometry x="325" y="130" width="90" height="20" as="geometry"/>
                </mxCell>
                <mxCell id="37" value="(?,e1_ip):(t0_ip,e2_ip)" style="text;html=1;align=center;verticalAlign=middle;resizable=0;points=[];autosize=1;" parent="1" vertex="1">
                    <mxGeometry x="200" y="210" width="130" height="20" as="geometry"/>
                </mxCell>
                <mxCell id="38" value="(e0_ip,e1_ip):(t0_ip,e2_ip)" style="text;html=1;align=center;verticalAlign=middle;resizable=0;points=[];autosize=1;" parent="1" vertex="1">
                    <mxGeometry x="185" y="250" width="160" height="20" as="geometry"/>
                </mxCell>
                <mxCell id="39" value="eth2" style="rounded=1;whiteSpace=wrap;html=1;" parent="1" vertex="1">
                    <mxGeometry x="280" y="880" width="80" height="40" as="geometry"/>
                </mxCell>
                <mxCell id="43" value="server" style="rounded=1;whiteSpace=wrap;html=1;" parent="1" vertex="1">
                    <mxGeometry x="40" y="880" width="80" height="40" as="geometry"/>
                </mxCell>
                <mxCell id="44" value="ip" style="rounded=1;whiteSpace=wrap;html=1;" parent="1" vertex="1">
                    <mxGeometry x="160" y="880" width="80" height="40" as="geometry"/>
                </mxCell>
                <mxCell id="46" value="(t0_ip,e2_ip)" style="text;html=1;align=center;verticalAlign=middle;resizable=0;points=[];autosize=1;" parent="1" vertex="1">
                    <mxGeometry x="455" y="610" width="80" height="20" as="geometry"/>
                </mxCell>
                <mxCell id="47" value="" style="endArrow=none;html=1;entryX=0.5;entryY=1;entryDx=0;entryDy=0;" parent="1" edge="1">
                    <mxGeometry width="50" height="50" relative="1" as="geometry">
                        <mxPoint x="320" y="1120" as="sourcePoint"/>
                        <mxPoint x="319.86999999999995" y="920" as="targetPoint"/>
                    </mxGeometry>
                </mxCell>
                <mxCell id="48" value="" style="endArrow=classic;html=1;" parent="1" edge="1">
                    <mxGeometry width="50" height="50" relative="1" as="geometry">
                        <mxPoint x="320" y="1000" as="sourcePoint"/>
                        <mxPoint x="200" y="1000" as="targetPoint"/>
                    </mxGeometry>
                </mxCell>
                <mxCell id="49" value="" style="endArrow=classic;html=1;" parent="1" edge="1">
                    <mxGeometry width="50" height="50" relative="1" as="geometry">
                        <mxPoint x="200" y="1040" as="sourcePoint"/>
                        <mxPoint x="80" y="1040" as="targetPoint"/>
                    </mxGeometry>
                </mxCell>
                <mxCell id="50" value="" style="endArrow=none;html=1;entryX=0.5;entryY=1;entryDx=0;entryDy=0;" parent="1" edge="1">
                    <mxGeometry width="50" height="50" relative="1" as="geometry">
                        <mxPoint x="200.13" y="1120" as="sourcePoint"/>
                        <mxPoint x="199.9999999999999" y="920" as="targetPoint"/>
                    </mxGeometry>
                </mxCell>
                <mxCell id="51" value="" style="endArrow=none;html=1;entryX=0.5;entryY=1;entryDx=0;entryDy=0;" parent="1" edge="1">
                    <mxGeometry width="50" height="50" relative="1" as="geometry">
                        <mxPoint x="79.71000000000001" y="1120" as="sourcePoint"/>
                        <mxPoint x="79.5799999999999" y="920" as="targetPoint"/>
                    </mxGeometry>
                </mxCell>
                <mxCell id="52" value="(e1_ip,e2_ip)" style="text;html=1;align=center;verticalAlign=middle;resizable=0;points=[];autosize=1;" parent="1" vertex="1">
                    <mxGeometry x="210" y="690" width="90" height="20" as="geometry"/>
                </mxCell>
                <mxCell id="54" value="eth1" style="rounded=1;whiteSpace=wrap;html=1;" parent="1" vertex="1">
                    <mxGeometry x="280" y="440" width="80" height="40" as="geometry"/>
                </mxCell>
                <mxCell id="58" value="" style="endArrow=classic;html=1;rounded=0;" parent="1" edge="1">
                    <mxGeometry width="50" height="50" relative="1" as="geometry">
                        <mxPoint x="320" y="760" as="sourcePoint"/>
                        <mxPoint x="320" y="960" as="targetPoint"/>
                        <Array as="points">
                            <mxPoint x="380" y="760"/>
                            <mxPoint x="380" y="960"/>
                        </Array>
                    </mxGeometry>
                </mxCell>
                <mxCell id="60" value="1" style="ellipse;whiteSpace=wrap;html=1;aspect=fixed;fontSize=8;" parent="1" vertex="1">
                    <mxGeometry x="130" y="120" width="10" height="10" as="geometry"/>
                </mxCell>
                <mxCell id="66" value="2" style="ellipse;whiteSpace=wrap;html=1;aspect=fixed;fontSize=8;" parent="1" vertex="1">
                    <mxGeometry x="280" y="160" width="10" height="10" as="geometry"/>
                </mxCell>
                <mxCell id="70" value="3" style="ellipse;whiteSpace=wrap;html=1;aspect=fixed;fontSize=8;" parent="1" vertex="1">
                    <mxGeometry x="480" y="200" width="10" height="10" as="geometry"/>
                </mxCell>
                <mxCell id="71" value="4" style="ellipse;whiteSpace=wrap;html=1;aspect=fixed;fontSize=8;" parent="1" vertex="1">
                    <mxGeometry x="400" y="240" width="10" height="10" as="geometry"/>
                </mxCell>
                <mxCell id="72" value="(e0_ip,e1_ip):(t0_ip,e2_ip)" style="text;html=1;align=center;verticalAlign=middle;resizable=0;points=[];autosize=1;" parent="1" vertex="1">
                    <mxGeometry x="185" y="530" width="160" height="20" as="geometry"/>
                </mxCell>
                <mxCell id="73" value="5" style="ellipse;whiteSpace=wrap;html=1;aspect=fixed;fontSize=8;" parent="1" vertex="1">
                    <mxGeometry x="490" y="640" width="10" height="10" as="geometry"/>
                </mxCell>
                <mxCell id="74" value="(t0_ip,e2_ip)" style="text;html=1;align=center;verticalAlign=middle;resizable=0;points=[];autosize=1;" parent="1" vertex="1">
                    <mxGeometry x="240" y="650" width="80" height="20" as="geometry"/>
                </mxCell>
                <mxCell id="75" value="6" style="ellipse;whiteSpace=wrap;html=1;aspect=fixed;fontSize=8;" parent="1" vertex="1">
                    <mxGeometry x="365" y="680" width="10" height="10" as="geometry"/>
                </mxCell>
                <mxCell id="76" value="NAT" style="text;html=1;strokeColor=none;fillColor=none;align=center;verticalAlign=middle;whiteSpace=wrap;rounded=0;fontSize=8;" parent="1" vertex="1">
                    <mxGeometry x="170" y="695" width="30" height="10" as="geometry"/>
                </mxCell>
                <mxCell id="78" value="Route" style="text;html=1;strokeColor=none;fillColor=none;align=center;verticalAlign=middle;whiteSpace=wrap;rounded=0;fontSize=8;" vertex="1" parent="1">
                    <mxGeometry x="200" y="135" width="30" height="10" as="geometry"/>
                </mxCell>
            </root>
        </mxGraphModel>
    </diagram>
</mxfile>